<svg xmlns="http://www.w3.org/2000/svg" width="17.543" height="17.543" viewBox="0 0 17.543 17.543"><defs><style>.a{fill:#fff;}</style></defs><path class="a" d="M291.076,508.668l-.22.033Zm0,0" transform="translate(-280.89 -491.239)"/><path class="a" d="M299.445,507.793l-.1.018Zm0,0" transform="translate(-289.083 -490.394)"/><path class="a" d="M277.867,510.34q-.128.014-.258.025Q277.739,510.354,277.867,510.34Zm0,0" transform="translate(-268.097 -492.854)"/><path class="a" d="M286.569,509.738l-.124.015Zm0,0" transform="translate(-276.631 -492.273)"/><path class="a" d="M306.757,506.41l-.093.019Zm0,0" transform="translate(-296.157 -489.059)"/><path class="a" d="M324.559,502.113l-.075.021Zm0,0" transform="translate(-313.366 -484.909)"/><path class="a" d="M319.14,503.543l-.081.021Zm0,0" transform="translate(-308.126 -486.29)"/><path class="a" d="M312.153,505.254l-.086.019Zm0,0" transform="translate(-301.374 -487.942)"/><path class="a" d="M273.619,511.09l-.139.01Zm0,0" transform="translate(-264.11 -493.578)"/><path class="a" d="M17.543,8.771a8.771,8.771,0,1,0-8.771,8.771l.154,0V10.713H7.041v-2.2H8.926V6.9a2.638,2.638,0,0,1,2.816-2.894,15.513,15.513,0,0,1,1.689.086V6.051H12.278c-.91,0-1.086.432-1.086,1.067v1.4h2.175l-.283,2.2H11.193V17.2A8.776,8.776,0,0,0,17.543,8.771Zm0,0"/><path class="a" d="M265.166,511.43q-.137.009-.275.014Q265.029,511.439,265.166,511.43Zm0,0" transform="translate(-255.815 -493.906)"/><path class="a" d="M260.65,511.836l-.146,0Zm0,0" transform="translate(-251.578 -494.299)"/></svg>