<svg xmlns="http://www.w3.org/2000/svg" width="17.543" height="17.543" viewBox="0 0 17.543 17.543"><defs><style>.a{fill:#fff;}</style></defs><path class="a" d="M12.061,0H5.482A5.483,5.483,0,0,0,0,5.482v6.579a5.483,5.483,0,0,0,5.482,5.482h6.579a5.483,5.483,0,0,0,5.482-5.482V5.482A5.483,5.483,0,0,0,12.061,0ZM15.9,12.061A3.842,3.842,0,0,1,12.061,15.9H5.482a3.842,3.842,0,0,1-3.838-3.838V5.482A3.842,3.842,0,0,1,5.482,1.645h6.579A3.842,3.842,0,0,1,15.9,5.482Z"/><g transform="translate(4.386 4.386)"><path class="a" d="M132.386,128a4.386,4.386,0,1,0,4.386,4.386A4.386,4.386,0,0,0,132.386,128Zm0,7.127a2.741,2.741,0,1,1,2.741-2.741A2.745,2.745,0,0,1,132.386,135.127Z" transform="translate(-128 -128)"/></g><g transform="translate(12.902 3.472)"><ellipse class="a" cx="0.584" cy="0.584" rx="0.584" ry="0.584"/></g></svg>