<svg xmlns="http://www.w3.org/2000/svg" width="17.543" height="17.543" viewBox="0 0 17.543 17.543"><defs><style>.a{fill:#fff;}</style></defs><path class="a" d="M8.771,0a8.771,8.771,0,1,0,8.771,8.771A8.772,8.772,0,0,0,8.771,0Zm4,6.839q.006.129.006.26a5.689,5.689,0,0,1-5.728,5.728h0a5.7,5.7,0,0,1-3.086-.9,4.1,4.1,0,0,0,.48.028,4.04,4.04,0,0,0,2.5-.862,2.016,2.016,0,0,1-1.881-1.4,2.007,2.007,0,0,0,.909-.035A2.014,2.014,0,0,1,4.362,7.683c0-.009,0-.017,0-.026a2,2,0,0,0,.912.252,2.015,2.015,0,0,1-.623-2.688,5.716,5.716,0,0,0,4.15,2.1,2.014,2.014,0,0,1,3.431-1.836A4.038,4.038,0,0,0,13.51,5a2.021,2.021,0,0,1-.885,1.114A4.015,4.015,0,0,0,13.781,5.8,4.092,4.092,0,0,1,12.776,6.839Zm0,0"/></svg>